# xmcd
#
# Track frame offsets: 
#        150
#        13486
#        30361
#        46127
#        62412
#        79318
#        95521
#        108987
#        128130
#        150203
#        168653
#        185689
#        200029
#        213726
#        228802
#        242294
#        256366
#        275652
#        290032
#        304931
#        317972
#
# Disc length: 4436 seconds
#
# Revision: 1
# Processed by: cddbd v1.5.2PL0 Copyright (c) Steve Scherf et al.
# Submitted via: ExactAudioCopyFreeDBPlugin 1.0
#
DISCID=2c115215
DTITLE=George Jackson - In Memphis, 1972-1977:  The Sounds of Memphis 
DTITLE=and XL Recordings
DYEAR=2009
DGENRE=Soul
TTITLE0=Aretha, Sing One for Me
TTITLE1=Things are Getting Better
TTITLE2=Talking About the Love I Have for You
TTITLE3=Let's Live for Ourselves
TTITLE4=If You Never See Me
TTITLE5=How Can I Get Next to You
TTITLE6=All in My Mind
TTITLE7=Walking the City Streets
TTITLE8=Dear Abby
TTITLE9=A Woman Wants to Be Loved
TTITLE10=I Don't Need You No More
TTITLE11=Let Them Know You Care
TTITLE12=(If I Could Get on That) Soul Train
TTITLE13=You Can't Run Away from Love
TTITLE14=Take Your Love and Go
TTITLE15=Smoking and Drinking
TTITLE16=Willie Lump Lump
TTITLE17=She Can't Replace the Love I Have for You
TTITLE18=Macking on You
TTITLE19=Patricia
TTITLE20=We've Only Just Begun
EXTD=
EXTT0=
EXTT1=
EXTT2=
EXTT3=
EXTT4=
EXTT5=
EXTT6=
EXTT7=
EXTT8=
EXTT9=
EXTT10=
EXTT11=
EXTT12=
EXTT13=
EXTT14=
EXTT15=
EXTT16=
EXTT17=
EXTT18=
EXTT19=
EXTT20=
PLAYORDER=
